<?xml version="1.0" encoding="iso-8859-1"?>
<!-- Generator: Adobe Illustrator 19.0.0, SVG Export Plug-In . SVG Version: 6.00 Build 0)  -->
<svg version="1.1" id="Layer_1" xmlns="http://www.w3.org/2000/svg" xmlns:xlink="http://www.w3.org/1999/xlink" x="0px" y="0px"
	 viewBox="0 0 503.5 503.5" style="enable-background:new 0 0 503.5 503.5;" xml:space="preserve">
<g transform="translate(1 1)">
	<path style="fill:#ECF4F7;" d="M429.9,233.65L429.9,233.65L313,323.25l-36.7,28.2c0,0-12.8,11.1-25.6,11.1
		c-12.8,0-25.6-11.1-25.6-11.1l-37.5-28.2l-116.1-89.6l0,0v-119.4v-76.8c0-17.9,15.4-34.1,34.1-34.1h290.1
		c17.9,0,34.1,15.4,34.1,34.1v76.8v119.4H429.9z"/>
	<g>
		<path id="SVGCleanerId_0" style="fill:#AAB1BA;" d="M71.5,114.25v119.5l0,0l-66.6-50.4H4.1c1.7-17.9,10.2-35,25.6-43.5
			L71.5,114.25z M498.2,184.15h-2.6l-65.7,49.5l0,0v-119.4l42.7,25.6C487.9,149.25,496.5,165.45,498.2,184.15z"/>
	</g>
	<g>
		<path id="SVGCleanerId_0_1_" style="fill:#AAB1BA;" d="M71.5,114.25v119.5l0,0l-66.6-50.4H4.1c1.7-17.9,10.2-35,25.6-43.5
			L71.5,114.25z M498.2,184.15h-2.6l-65.7,49.5l0,0v-119.4l42.7,25.6C487.9,149.25,496.5,165.45,498.2,184.15z"/>
	</g>
	<path style="fill:#FFD0A1;" d="M472.6,139.85l-42.7-25.6v119.5l-116.1,88.7l-36.7,28.2c0,0-12.8,11.1-25.6,11.1
		c-12.8,0-25.6-11.1-25.6-11.1l-29.6-22.2l-8.8-6.8l-116-88v-119.4l-41.8,25.6c-15.3,8.5-23.8,25.4-25.6,43.2l-1.7-0.6
		c0,2.6,0,5.1,0,7.7v273.1c0,3.4,0.9,6.8,1.7,10.2c4.3,14.5,17.9,24.7,33.3,24.7h426.7c16.2,0,29.9-11.1,33.3-25.6
		c0.9-2.6,0.9-6,0.9-8.5v-273c0-2.6,0-4.3,0-6.8C496.5,165.45,487.9,149.25,472.6,139.85z"/>
	<g>
		<path id="SVGCleanerId_0_2_" style="fill:#AAB1BA;" d="M71.5,114.25v119.5l0,0l-66.6-50.4H4.1c1.7-17.9,10.2-35,25.6-43.5
			L71.5,114.25z M498.2,184.15h-2.6l-65.7,49.5l0,0v-119.4l42.7,25.6C487.9,149.25,496.5,165.45,498.2,184.15z"/>
	</g>
</g>
<path style="fill:#51565F;" d="M465,503.45H38.4c-21.3,0-38.4-17.1-38.4-38.4v-273c0-23,11.1-45.2,27.3-54.6l8.5-6
	c1.7-1.7,4.3-0.9,6,0.9s0.9,4.3-0.9,6l-8.5,6c-16.2,9.4-23.9,30.7-23.9,47.8v273.1c0,17.1,12.8,29.9,29.9,29.9h426.7
	c17.1,0,29.9-12.8,29.9-29.9v-273.2c0-21.3-8.5-38.4-23.9-47.8l-8.5-6c-1.7-1.7-2.6-4.3-0.9-6s4.3-2.6,6-0.9l8.5,6
	c17.1,11.1,27.3,30.7,27.3,54.6v273.1C503.4,486.45,486.4,503.45,465,503.45z M465,452.25c-0.9,0-1.7,0-2.6-0.9l-119.5-93.9
	c-1.7-1.7-2.6-4.3-0.9-6s4.3-2.6,6-0.9l119.5,93.9c1.7,1.7,2.6,4.3,0.9,6C467.6,451.45,465.9,452.25,465,452.25z M38.4,452.25
	c-0.9,0-2.6-0.9-3.4-1.7c-1.7-1.7-0.9-4.3,0.9-6l119.4-93.8c1.7-1.7,4.3-0.9,6,0.9c1.7,1.7,0.9,4.3-0.9,6l-119.5,93.8
	C40.1,452.25,39.2,452.25,38.4,452.25z M251.7,366.95c-13.7,0-28.2-11.9-28.2-11.9L36.7,212.45c-1.7-1.7-2.6-4.3-0.9-6
	c1.7-1.7,4.3-2.6,6-0.9l27.3,20.5V38.45c0-20.5,17.9-38.4,38.4-38.4h290.1c20.5,0,38.4,17.9,38.4,38.4v187.7l27.3-20.5
	c1.7-1.7,4.3-0.9,6,0.9s0.9,4.3-0.9,6l-187.7,142.5C279,355.85,265.4,366.95,251.7,366.95z M76.8,232.95l151.9,115.2
	c0,0,11.9,10.2,23,10.2c11.1,0,23-9.4,23-9.4l151.9-116.1V38.45c0-16.2-13.7-29.9-29.9-29.9H106.6c-16.2,0-29.9,13.7-29.9,29.9
	v194.5H76.8z M294.4,298.65h-85.3c-2.6,0-4.3-1.7-4.3-4.3c0-2.6,1.7-4.3,4.3-4.3h85.3c2.6,0,4.3,1.7,4.3,4.3
	C298.6,296.95,296.9,298.65,294.4,298.65z M345.6,247.45h-34.1c-2.6,0-4.3-1.7-4.3-4.3s1.7-4.3,4.3-4.3h34.1c2.6,0,4.3,1.7,4.3,4.3
	S348.1,247.45,345.6,247.45z M277.3,247.45H157.8c-2.6,0-4.3-1.7-4.3-4.3s1.7-4.3,4.3-4.3h119.5c2.6,0,4.3,1.7,4.3,4.3
	S279.9,247.45,277.3,247.45z M345.6,196.25H243.2c-2.6,0-4.3-1.7-4.3-4.3s1.7-4.3,4.3-4.3h102.4c2.6,0,4.3,1.7,4.3,4.3
	C349.8,194.55,348.1,196.25,345.6,196.25z M209,196.25h-51.2c-2.6,0-4.3-1.7-4.3-4.3s1.7-4.3,4.3-4.3H209c2.6,0,4.3,1.7,4.3,4.3
	S211.6,196.25,209,196.25z M260.2,128.05H157.8c-2.6,0-4.3-1.7-4.3-4.3s1.7-4.3,4.3-4.3h102.4c2.6,0,4.3,1.7,4.3,4.3
	S262.8,128.05,260.2,128.05z"/>
<g>
</g>
<g>
</g>
<g>
</g>
<g>
</g>
<g>
</g>
<g>
</g>
<g>
</g>
<g>
</g>
<g>
</g>
<g>
</g>
<g>
</g>
<g>
</g>
<g>
</g>
<g>
</g>
<g>
</g>
</svg>
