<svg width="20" height="22" viewBox="0 0 20 22" fill="none" xmlns="http://www.w3.org/2000/svg">
    <path fill-rule="evenodd" clip-rule="evenodd" d="M3.33 1.75C2.65773 1.75 2.06 2.30029 2.06 3.12V5.45001C2.06 5.60419 2.12005 5.87213 2.2613 6.18567C2.3991 6.49153 2.58111 6.76699 2.75555 6.94492L2.76368 6.95321L2.76362 6.95327L6.60362 10.9933C6.61831 11.0088 6.63233 11.0248 6.64565 11.0415C6.89874 11.3578 7.13572 11.7765 7.31072 12.2111C7.48403 12.6416 7.62 13.1456 7.62 13.63V18.98C7.62 19.9693 8.75499 20.5824 9.6001 20.0655L11.0033 19.1598C11.012 19.1542 11.0208 19.1488 11.0297 19.1435C11.1215 19.0895 11.2651 18.9431 11.3902 18.7014C11.4988 18.4916 11.5562 18.2817 11.5678 18.1267C11.0027 17.7096 10.5335 17.1826 10.178 16.5877C9.66949 15.7543 9.38 14.7808 9.38 13.75C9.38 10.7158 11.8458 8.25 14.88 8.25C15.1576 8.25 15.4328 8.27061 15.7019 8.3127L17.1616 7.02713C17.3344 6.84522 17.5332 6.55101 17.6899 6.20684C17.8529 5.84854 17.94 5.50245 17.94 5.23999V3.02002C17.94 2.32422 17.3658 1.75 16.67 1.75H3.33ZM0.559998 3.12C0.559998 1.5197 1.78226 0.25 3.33 0.25H16.67C18.1942 0.25 19.44 1.49582 19.44 3.02002V5.23999C19.44 5.78753 19.2721 6.35145 19.0551 6.82816C18.837 7.30752 18.5389 7.76523 18.2156 8.09506C18.2027 8.10814 18.1894 8.12075 18.1757 8.13285L16.4157 9.68284C16.2321 9.84456 15.9811 9.90653 15.7433 9.84888C15.4753 9.78391 15.1849 9.75 14.88 9.75C12.6742 9.75 10.88 11.5442 10.88 13.75C10.88 14.4978 11.0897 15.2031 11.46 15.8089L11.4641 15.8156L11.464 15.8157C11.7753 16.3372 12.2009 16.7773 12.7119 17.0905C12.9344 17.2269 13.07 17.4691 13.07 17.73V18.07C13.07 18.522 12.9273 18.9952 12.7223 19.3911C12.5224 19.7771 12.216 20.1805 11.8054 20.4274L10.4067 21.3302L10.3944 21.3379C8.62011 22.435 6.12 21.2285 6.12 18.98V13.63C6.12 13.4044 6.05097 13.0985 5.91928 12.7714C5.79457 12.4617 5.63489 12.1856 5.49241 12.0015L1.68009 7.99058C1.35645 7.65908 1.08503 7.22653 0.893691 6.80181C0.704948 6.38287 0.559998 5.89583 0.559998 5.45001V3.12Z" fill="black"/>
</svg>
